<?xml version="1.0" encoding="UTF-8"?>
<!DOCTYPE svg PUBLIC "-//W3C//DTD SVG 1.1//EN" "http://www.w3.org/Graphics/SVG/1.1/DTD/svg11.dtd">
<!-- Creator: CorelDRAW -->
<svg xmlns="http://www.w3.org/2000/svg" xml:space="preserve" width="43.3492mm" height="43.3492mm" version="1.1" style="shape-rendering:geometricPrecision; text-rendering:geometricPrecision; image-rendering:optimizeQuality; fill-rule:evenodd; clip-rule:evenodd"
viewBox="0 0 4335 4335"
 xmlns:xlink="http://www.w3.org/1999/xlink">
 <defs>
  <style type="text/css">
   <![CDATA[
    .fil0 {fill:black}
   ]]>
  </style>
 </defs>
 <g id="Layer_x0020_1">
  <metadata id="CorelCorpID_0Corel-Layer"/>
  <path class="fil0" d="M2219 3305c-11,15 -30,25 -47,26l-1 0 0 0 0 0 -1 0 0 0 -1 0c-6,0 -14,0 -21,-5 -8,-3 -16,-7 -21,-13 -4,-4 -7,-8 -9,-12 -12,-16 -14,-38 -5,-59 49,-112 14,-137 -81,-204 -85,-56 -201,-134 -230,-310 -7,-53 -3,-78 0,-117 32,-363 -148,-402 -401,-451 -237,-46 -529,-106 -529,-543 0,-166 74,-315 191,-416 -45,-73 -68,-157 -68,-247 0,-261 212,-476 472,-476 27,0 54,2 80,7 76,-280 333,-487 636,-487 292,0 541,192 627,456 31,-5 64,-8 100,-8 363,0 659,296 659,660 0,224 -113,429 -299,549 16,48 24,99 24,152 0,378 -321,438 -554,483 -116,22 -239,46 -271,99 -14,28 -11,74 14,134 145,363 -46,561 -250,769l-14 13z"/>
  <path class="fil0" d="M1145 4209l-213 -480c-11,-21 -8,-49 10,-67 18,-18 42,-25 67,-18l360 127 -106 -525c-4,-25 7,-49 28,-63 21,-15 50,-11 71,3l596 458 416 -352c14,-14 35,-18 53,-14 17,3 35,17 42,35l127 268 310 -289c14,-14 39,-21 60,-14 21,7 35,21 42,42l110 391 359 131c22,7 36,25 39,46 4,21 -3,42 -21,56l-299 265 824 0c36,0 64,28 64,63 0,35 -28,64 -64,64l-981 0c-7,1 -15,1 -22,0l-1773 0 -2 0 -928 0c-35,0 -63,-29 -63,-64 0,-35 28,-63 63,-63l831 0z"/>
 </g>
</svg>
