<svg version="1.1" id="Layer_1" xmlns="http://www.w3.org/2000/svg" xmlns:xlink="http://www.w3.org/1999/xlink" x="0px" y="0px" viewBox="0 0 24 24" enable-background="new 0 0 24 24" xml:space="preserve">
<g>
	<circle fill="#000000" cx="8.5" cy="14" r="1" id="id_116"></circle>
	<circle fill="#000000" cx="15.5" cy="14" r="1" id="id_117"></circle>
	<path fill="#000000" d="M22,4.5C22,2.6152344,13.5048828,0,12,0S2,2.6152344,2,4.5
		c0,1.3447266,1.8491211,2.0605469,2.855957,2.3515625L4.5761719,7.6904297C4.2431641,7.9472656,3.5,8.6191406,3.5,9.5
		c0,0.286438,0.2476196,0.598877,0.6516724,0.9151001c-0.088562,0.7592163-0.1385498,2.0130005-0.149231,2.7890015
		C3.1108398,13.7792969,3,14.7744141,3,15.5c0,0.9599609,0.8925781,3.1142578,2.1591797,3.4541016
		C6.7026367,22.3027344,9.0039063,24,12,24s5.2973633-1.6972656,6.8408203-5.0458984C20.1074219,18.6142578,21,16.4599609,21,15.5
		c0-0.7255859-0.1108398-1.7207031-1.0024414-2.2958984c-0.0106812-0.776001-0.0606689-2.0297852-0.149231-2.7890015
		C20.2523804,10.098877,20.5,9.786438,20.5,9.5c0-0.8808594-0.7431641-1.5527344-1.0761719-1.8095703L19.144043,6.8515625
		C20.1508789,6.5605469,22,5.8447266,22,4.5z M4.050415,14.8901367c0.0319824,0.4641113,0.0842896,0.9888306,0.1690674,1.5097046
		C4.0878906,16.0611572,4,15.7342529,4,15.5C4,15.258606,4.0194092,15.0609131,4.050415,14.8901367z M17.9526367,18.4921875
		C17.4433594,19.6074219,15.8930664,23,12,23s-5.4433594-3.3925781-5.9526367-4.5078125l-0.0966797-0.2089844
		c-0.0249634-0.0516968-0.0710449-0.0842285-0.1104126-0.1234741l0.0132446-0.0132446
		c-0.3398438-0.3398438-0.5634766-1.2607422-0.6958008-2.265625c0.8173828,1.2333984,1.9287109,2.4667969,3.1264648,3.4267578
		c0.1298828,0.1025391,0.3022461,0.1386719,0.4599609,0.0869141c0.1582031-0.0488281,0.2822266-0.1728516,0.3305664-0.3310547
		C9.2695313,18.4277344,9.8422852,18,10.5,18h3c0.6577148,0,1.2304688,0.4277344,1.425293,1.0634766
		c0.0483398,0.1582031,0.1723633,0.2822266,0.3305664,0.3310547c0.0483398,0.015625,0.0981445,0.0224609,0.1474609,0.0224609
		c0.1123047,0,0.2226563-0.0380859,0.3125-0.109375c1.1977539-0.9599609,2.309082-2.1933594,3.1264648-3.4267578
		c-0.1323242,1.0048828-0.355957,1.9257813-0.6958008,2.265625l0.0132446,0.0132446
		c-0.0393677,0.0392456-0.0854492,0.0717773-0.1104126,0.1234741L17.9526367,18.4921875z M19.7805176,16.3998413
		c0.0847778-0.520874,0.137085-1.0455933,0.1690674-1.5097046C19.9805908,15.0609131,20,15.258606,20,15.5
		C20,15.7342529,19.9121094,16.0611572,19.7805176,16.3998413z M18.9991455,13.4100342
		c-0.5200195,1.4957275-1.8521729,3.3196411-3.4234619,4.7081299C15.1235352,17.4296875,14.3549805,17,13.5,17h-3
		c-0.8549805,0-1.6235352,0.4296875-2.0756836,1.1181641c-1.5712891-1.3884888-2.9034424-3.2124023-3.4234619-4.7081299
		c0.0031128-0.6299438,0.039856-1.6387939,0.098938-2.3935547C7.0509033,12.0637817,10.2987671,13,12,13
		s4.9490967-0.9362183,6.9002075-1.9835205C18.9592896,11.7712402,18.9960327,12.7800903,18.9991455,13.4100342z
		 M19.496582,9.4365234C18.9848633,10.1435547,14.515625,12,12,12s-6.9848633-1.8564453-7.496582-2.5634766
		c0.0397339-0.355835,0.392334-0.7128906,0.6292725-0.9073486C5.864563,8.6459961,8.376709,9,12,9
		c3.6240845,0,6.1365356-0.3540649,6.8677979-0.4708862C19.0947876,8.7166748,19.4560547,9.0770874,19.496582,9.4365234z
		 M18.3930664,6.0117188c-0.1386719,0.0302734-0.2578125,0.1181641-0.3276367,0.2412109
		c-0.0703125,0.1230469-0.0844727,0.2705078-0.0395508,0.4052734l0.3125,0.937439C17.3306885,7.7370605,15.0496826,8,12,8
		S6.6693115,7.7370605,5.6616211,7.5956421l0.3125-0.937439C6.019043,6.5234375,6.0048828,6.3759766,5.9345703,6.2529297
		C5.8647461,6.1298828,5.7456055,6.0419922,5.6069336,6.0117188C4.5141602,5.7724609,3,5.1142578,2.996582,4.5292969
		C3.3164063,3.546875,10.2338867,1,12,1c1.7597656,0,8.6328125,2.5283203,8.9995117,3.5185547
		C20.9702148,5.1523438,19.434082,5.7822266,18.3930664,6.0117188z" id="id_118"></path>
	<path fill="#000000" d="M13,19h-2c-0.2763672,0-0.5,0.2236328-0.5,0.5S10.7236328,20,11,20h2c0.2763672,0,0.5-0.2236328,0.5-0.5
		S13.2763672,19,13,19z" id="id_119"></path>
	<path fill="#000000" d="M13.6796875,5.0361328c-0.2583008-0.0996094-0.5444336,0.0292969-0.6459961,0.2832031
		C13.0134277,5.3705444,12.8642578,5.706604,12.5,5.8862915V4H13c0.2763672,0,0.5-0.2236328,0.5-0.5S13.2763672,3,13,3h-0.5V2.5
		C12.5,2.2236328,12.2763672,2,12,2s-0.5,0.2236328-0.5,0.5V3H11c-0.2763672,0-0.5,0.2236328-0.5,0.5S10.7236328,4,11,4h0.5
		v1.8861694c-0.362854-0.1790771-0.5123901-0.5132446-0.5336914-0.5658569
		c-0.0991211-0.2568359-0.3867188-0.3886719-0.6420898-0.2880859c-0.2583008,0.0966797-0.3891602,0.3847656-0.2924805,0.6435547
		C10.0522461,5.7294922,10.5454102,7,12,7s1.9477539-1.2705078,1.9682617-1.3242188
		C14.0644531,5.4189453,13.9350586,5.1357422,13.6796875,5.0361328z" id="id_120"></path>
</g>
<g>
</g>
<g>
</g>
<g>
</g>
<g>
</g>
<g>
</g>
<g>
</g>
<g>
</g>
<g>
</g>
<g>
</g>
<g>
</g>
<g>
</g>
<g>
</g>
<g>
</g>
<g>
</g>
<g>
</g>
</svg>