<svg id="outline" xmlns="http://www.w3.org/2000/svg" viewBox="0 0 340 340"><title>35_skull cross swords</title><path d="M160.1,218.518a11.079,11.079,0,0,0-2.472-9.677c-4.447-5.051-12.649-8.967-18.745-11.362a12.107,12.107,0,0,0-15.593,6.389,30.382,30.382,0,0,0-1.979,15.32,17.214,17.214,0,0,0,16.437,15.517c.344.012.687.017,1.032.017a32.568,32.568,0,0,0,11.25-2.027,14.774,14.774,0,0,0,9.325-10.79Zm-6.761-1.487-.745,3.387a7.885,7.885,0,0,1-4.949,5.777,25.524,25.524,0,0,1-9.672,1.591A10.27,10.27,0,0,1,128.2,218.5a23.6,23.6,0,0,1,1.432-11.853,5.273,5.273,0,0,1,6.718-2.722c7.614,2.991,13.325,6.363,16.083,9.494A4.135,4.135,0,0,1,153.335,217.031Z" id="id_105" style="fill: rgb(0, 0, 0);"></path><path d="M217.237,219.188a30.368,30.368,0,0,0-1.978-15.32,12.111,12.111,0,0,0-15.593-6.39c-6.1,2.395-14.3,6.312-18.746,11.362a11.082,11.082,0,0,0-2.471,9.678l.745,3.387a14.773,14.773,0,0,0,9.326,10.79,32.559,32.559,0,0,0,11.25,2.027c.344,0,.689,0,1.033-.017A17.213,17.213,0,0,0,217.237,219.188Zm-6.889-.692h0a10.268,10.268,0,0,1-9.77,9.289A25.521,25.521,0,0,1,190.9,226.2a7.881,7.881,0,0,1-4.949-5.777l-.744-3.388a4.131,4.131,0,0,1,.906-3.614c2.756-3.131,8.468-6.5,16.081-9.5a5.278,5.278,0,0,1,6.718,2.722A23.586,23.586,0,0,1,210.348,218.5Z" id="id_106" style="fill: rgb(0, 0, 0);"></path><path d="M177.81,239.676a11.084,11.084,0,0,0-17.051,0,29.678,29.678,0,0,0-3.335,4.52,13.12,13.12,0,0,0-.975,11.076,9.962,9.962,0,0,0,6.031,6.206,23.107,23.107,0,0,0,7.269,1.159,22.112,22.112,0,0,0,6.248-.878,9.8,9.8,0,0,0,6.168-5.992,12.956,12.956,0,0,0-.725-11.073A30.014,30.014,0,0,0,177.81,239.676Zm-2.078,13.533a3.061,3.061,0,0,1-1.7,1.911c-2.9.857-9.513,1.042-11.089-2.239a5.62,5.62,0,0,1,.4-5.1,22.752,22.752,0,0,1,2.55-3.464h0a4.2,4.2,0,0,1,6.772,0,23.135,23.135,0,0,1,2.785,3.862A5.977,5.977,0,0,1,175.732,253.209Z" id="id_107" style="fill: rgb(0, 0, 0);"></path><path d="M330.83,305.871c-25.327-8.466-60.2-27.737-93.3-51.55a3.462,3.462,0,0,0-4.043,5.62c27.477,19.772,56.249,36.49,80.012,46.677-22.339.2-65.064-3.214-105.713-27.779-.091-.055-.188-.088-.282-.134l.615-11.58a12.841,12.841,0,0,1,6.347-10.44c10.582-6.137,28.083-20.223,26.39-45.61a90.882,90.882,0,0,0-7.214-29.986,398.958,398.958,0,0,0,23.287-43.215c5.382,3.313,11.331,6.716,18.345,8.87a3.71,3.71,0,0,0,4.169-1.469l2.269-3.79a16.526,16.526,0,0,0-5.962-22.814c-.988-.57-2.02-1.193-3.074-1.853l29.98-52.61c1.762,1.711,3.517,3.558,5.249,5.588a3.462,3.462,0,0,0,6.02-2.967,55.216,55.216,0,0,0-5.706-14.171l4.564-8.365a12.142,12.142,0,0,0-20.759-12.555l-1.3,1.955a46.91,46.91,0,0,0-37.3-5.7,47.644,47.644,0,0,0-33.938,32.839,54.188,54.188,0,0,0-1.82,8.936,56.049,56.049,0,0,0,5.547,31.124A88.68,88.68,0,0,0,235.1,119.16c-5.423,7.972-11.151,15.913-17.084,23.634a3.462,3.462,0,0,0,5.49,4.219c5.678-7.391,11.169-14.982,16.394-22.61a90.054,90.054,0,0,0,11.2,9.579A386.37,386.37,0,0,1,230,173.78c-7.9-13.978-20.43-25.817-38.837-31.113a3.457,3.457,0,0,0-4.252,2.265l-1.339,4.157a15.444,15.444,0,0,0,3.3,15.121l1.523,1.666a9.146,9.146,0,0,1-.4,12.9c-1.345,1.239-2.861,2.435-4.47,3.678l.33-2.7a10.346,10.346,0,0,0-7.435-11.232,8.523,8.523,0,0,1-6.106-7.53l-1.327-18.04a3.452,3.452,0,0,0-3.521-3.207c-15.911.317-28.682,4.717-38.749,11.612-8.4-10.476-16.406-21.291-23.825-32.2a88.637,88.637,0,0,0,11.9-18.272,56.044,56.044,0,0,0,5.547-31.123,54.155,54.155,0,0,0-1.82-8.935A47.643,47.643,0,0,0,86.58,28a46.9,46.9,0,0,0-37.3,5.7l-1.3-1.955A12.142,12.142,0,0,0,27.213,44.294l4.564,8.364a55.216,55.216,0,0,0-5.706,14.171,3.462,3.462,0,0,0,6.02,2.967c1.732-2.03,3.487-3.877,5.248-5.588l29.981,52.61c-1.054.66-2.086,1.283-3.074,1.853a16.526,16.526,0,0,0-5.962,22.814l2.269,3.79c.64,1.069,1.846,2.068,2.971,1.683a95.325,95.325,0,0,0,19.543-9.083c2.966,6.492,7.411,15.62,13.459,26.489.634,1.136,2.919,2.54,4.709,1.341A3.573,3.573,0,0,0,102.576,161C96.31,149.736,91.8,140.39,88.9,133.983a90.027,90.027,0,0,0,11.189-9.573c7.234,10.562,15,21.027,23.14,31.177-16.536,14.267-24.242,35.927-25.546,55.488-1.112,16.689,6.068,28.492,14.126,36.366C69.3,279.4,31.056,298.555,9.17,305.871a3.462,3.462,0,0,0,.614,6.711,148.735,148.735,0,0,0,19.252,1.066c20.512,0,54.813-3.127,90.315-20.035a3.462,3.462,0,1,0-2.977-6.251c-35.467,16.891-70.394,19.48-89.841,19.263,26.944-11.5,59.586-31.087,90.635-54.559a65.307,65.307,0,0,0,6.908,4.619,12.837,12.837,0,0,1,6.345,10.427l.912,17.164a13.854,13.854,0,0,0,11.02,12.762c1.895.391,4,.753,6.258,1.074a3.461,3.461,0,0,0,3.949-3.427v-8.013a3.182,3.182,0,0,1,2.917-3.281,3.01,3.01,0,0,1,3.1,3.01v2.584A10.645,10.645,0,0,0,169.2,299.63h.155a10.644,10.644,0,0,0,10.611-10.645v-2.313a3.181,3.181,0,0,1,2.917-3.281,3.01,3.01,0,0,1,3.105,3.01v8.284a3.461,3.461,0,0,0,3.95,3.427c2.257-.321,4.363-.682,6.258-1.074a13.856,13.856,0,0,0,10.733-10.676c40.037,23.291,80.709,27.3,103.908,27.3a149.659,149.659,0,0,0,19.383-1.078,3.462,3.462,0,0,0,.614-6.711ZM254.484,101.662l3.528-5.37a34.351,34.351,0,0,0,13.3,8.952l-4.376,7.68A77.9,77.9,0,0,1,254.484,101.662Zm28.857-17.536c-6.078-.9-10.271-5.37-12.172-7.859l5.908-8.99a32.678,32.678,0,0,0,11.757,7.21ZM274.809,99.1a27.787,27.787,0,0,1-12.848-8.816l5.225-7.953a26.355,26.355,0,0,0,12.553,8.117Zm-24.831-3.186a54.99,54.99,0,0,1-3.042-4.946c-6.334-11.679-5.454-25.812,2.24-36l.343-.449a22.131,22.131,0,0,1,23.375-7.727,62.757,62.757,0,0,1,7.634,2.627ZM292.349,68.32a25.489,25.489,0,0,1-11.4-6.932l5.879-8.948a71.117,71.117,0,0,1,10.539,7.078Zm5.438-32.739a5.219,5.219,0,0,1,8.923,5.4l-2.782,5.1a110.489,110.489,0,0,0-7.644-8.241ZM229.433,97.86a49.141,49.141,0,0,1-4.9-27.279,47.436,47.436,0,0,1,1.586-7.793,40.778,40.778,0,0,1,29.053-28.1,41.324,41.324,0,0,1,10.486-1.363A39.744,39.744,0,0,1,293.5,44.663a48.924,48.924,0,0,1,6.844,8.368A73.884,73.884,0,0,0,274.714,40.11a29.039,29.039,0,0,0-30.66,10.158l-.4.518c-9.33,12.357-10.431,29.425-2.806,43.482,8,14.753,21.517,24.675,31.447,30.4a9.6,9.6,0,0,1,3.479,13.26L275,139.221C248.991,128.792,235.883,111.09,229.433,97.86ZM33.29,40.978a5.219,5.219,0,0,1,8.923-5.4l1.5,2.253c-.7.6-1.381,1.219-2.046,1.866a55.089,55.089,0,0,0-5.6,6.375ZM60.262,90.447A26.363,26.363,0,0,0,72.814,82.33l5.225,7.953A27.8,27.8,0,0,1,65.192,99.1Zm-9.1-15.96a32.691,32.691,0,0,0,11.757-7.21l5.907,8.99c-1.9,2.488-6.092,6.957-12.171,7.859ZM90.021,95.912,59.472,49.417a62.767,62.767,0,0,1,7.635-2.627A22.131,22.131,0,0,1,90.48,54.516l.34.443c7.7,10.2,8.578,24.329,2.243,36.008A54.381,54.381,0,0,1,90.021,95.912ZM53.175,52.44l5.879,8.948a25.49,25.49,0,0,1-11.4,6.932l-5.016-8.8A71.117,71.117,0,0,1,53.175,52.44Zm15.519,52.8a34.355,34.355,0,0,0,13.294-8.952l3.528,5.37A77.948,77.948,0,0,1,73.07,112.924ZM65,139.221l-.774-1.292a9.6,9.6,0,0,1,3.479-13.26c9.93-5.726,23.446-15.648,31.446-30.4,7.626-14.057,6.525-31.125-2.809-43.488l-.4-.513a28.957,28.957,0,0,0-22.9-11.2,29.444,29.444,0,0,0-7.754,1.043A73.9,73.9,0,0,0,39.632,53.049,49.029,49.029,0,0,1,46.5,44.663a39.957,39.957,0,0,1,38.326-9.972,40.777,40.777,0,0,1,29.053,28.1,47.4,47.4,0,0,1,1.586,7.792,49.136,49.136,0,0,1-4.9,27.278C104.117,111.09,91.009,128.792,65,139.221ZM200.3,283.884a6.921,6.921,0,0,1-5.51,6.373q-.906.189-1.882.366V286.4a9.934,9.934,0,0,0-10.236-9.929,10.146,10.146,0,0,0-9.633,10.2v2.313a3.712,3.712,0,0,1-3.69,3.722H169.2a3.712,3.712,0,0,1-3.692-3.722V286.4a9.934,9.934,0,0,0-9.928-9.934c-.1,0-.206,0-.309,0a10.148,10.148,0,0,0-9.632,10.2v3.951c-.65-.119-1.279-.241-1.883-.366a6.919,6.919,0,0,1-5.508-6.361l-.912-17.164a19.748,19.748,0,0,0-9.785-16.036c-9.193-5.33-24.4-17.506-22.956-39.161,1.909-28.63,18.745-62.23,59.736-64.729l1.082,14.7A15.473,15.473,0,0,0,176.5,175.18a3.451,3.451,0,0,1,2.485,3.742l-1.366,11.2a3.462,3.462,0,0,0,5.765,2.981c1.8-1.637,3.754-3.143,5.642-4.6,1.914-1.476,3.893-3,5.663-4.632a16.08,16.08,0,0,0,.8-22.68l-1.511-1.653a8.505,8.505,0,0,1-1.816-8.328l.282-.875c24.066,8.39,39.494,31.007,41.506,61.2C235.4,233.189,220.19,245.365,211,250.7a19.754,19.754,0,0,0-9.787,16.049Z" id="id_108"></path></svg>